<?xml version="1.0" encoding="UTF-8"?>
<!DOCTYPE svg PUBLIC "-//W3C//DTD SVG 1.1//EN" "http://www.w3.org/Graphics/SVG/1.1/DTD/svg11.dtd">
<!-- Creator: CorelDRAW X7 -->
<svg xmlns="http://www.w3.org/2000/svg" xml:space="preserve" width="107.437mm" height="31.9319mm" version="1.1" style="shape-rendering:geometricPrecision; text-rendering:geometricPrecision; image-rendering:optimizeQuality; fill-rule:evenodd; clip-rule:evenodd"
viewBox="0 0 10744 3193"
 xmlns:xlink="http://www.w3.org/1999/xlink">
 <defs>
  <style type="text/css">
   <![CDATA[
    .fil0 {fill:#333333}
    .fil2 {fill:#333333;fill-rule:nonzero}
    .fil1 {fill:#333333;fill-rule:nonzero}
   ]]>
  </style>
 </defs>
 <g id="Layer_x0020_1">
  <metadata id="CorelCorpID_0Corel-Layer"/>
  <g id="_792775366128">
   <path class="fil0" d="M1422 1584l0 2 2 150c432,7 859,72 1184,195 -4,-217 -47,-452 -128,-682 -80,-227 -197,-449 -351,-645l-1581 0c-155,196 -272,418 -352,645 -81,230 -123,465 -128,682 325,-123 752,-188 1184,-195l2 -150 0 -2c-80,2 -161,6 -242,11 0,-10 0,-21 1,-31 80,-4 161,-9 241,-11l0 -3c0,-23 9,-44 25,-59l0 0 2 -3c-88,2 -177,6 -266,11 0,-11 1,-21 1,-31 108,-6 215,-11 322,-11 107,0 214,5 321,10 1,10 1,21 2,31 -89,-5 -178,-9 -266,-10l2 3 1 0c15,15 24,36 24,59l0 3c80,2 161,6 241,10 1,11 1,21 1,31 -80,-4 -161,-9 -242,-10zm-177 660l0 0c-72,12 -144,43 -217,80 -12,37 -48,71 -85,78 -19,4 -35,0 -46,-10 -92,48 -185,92 -280,105 3,68 16,140 37,213 4,14 9,28 14,43 147,51 379,-37 574,-335l3 -174zm66 142l0 0 11 -754c5,2 10,2 16,2 6,0 11,0 17,-2l10 754 -54 0zm55 35l0 0 -56 0 -1 76 58 0 -1 -76zm2 110l0 0 -59 0 -1 47 60 0 0 -47zm1 82l0 0 -61 0 -1 30 62 0 0 -30zm1 64l0 0 -63 0 -1 19 64 0 0 -19zm0 54l0 0 -64 0 0 11 65 0 -1 -11zm1 45l0 0 -66 0 0 6 66 0 0 -6zm63 -358l0 0c195,298 427,386 574,335 5,-15 10,-29 14,-43 22,-73 34,-145 37,-213 -96,-13 -189,-57 -282,-106 -11,8 -26,11 -44,8 -36,-7 -70,-39 -83,-75 -73,-37 -146,-68 -218,-80l2 174zm-3 -243l0 0 -3 -153c115,24 203,88 295,155 101,73 207,150 359,189l0 66c-95,-11 -193,-59 -292,-111 -12,-37 -47,-69 -83,-76 -18,-3 -34,0 -45,9 -76,-38 -153,-69 -231,-79zm-4 -223l0 0c136,24 234,95 336,170 101,73 208,150 361,184l26 6 0 27 0 110 0 17 -12 10 -10 8c-2,77 -15,161 -40,245 -19,62 -43,123 -75,182 82,1 166,-15 286,-48 -75,60 -185,89 -296,98 -41,-16 -86,-38 -137,-65 -111,-64 -384,-141 -528,-26 -147,-111 -410,-43 -527,26 -52,27 -96,49 -138,65 -111,-9 -220,-38 -296,-98 120,33 205,49 286,48 -31,-59 -56,-120 -74,-182 -25,-84 -39,-168 -41,-245l-9 -8 -13 -10 0 -17 0 -110 0 -27 27 -6c153,-34 259,-111 360,-184 103,-75 200,-146 336,-170l2 -124c-355,13 -712,106 -1112,280 -1,-43 1,-86 4,-132 -33,12 -65,24 -96,37l-47 19 0 -51c-2,-239 42,-500 132,-755 84,-238 208,-472 373,-677l10 -13 16 0 773 0 0 -137 -127 0 0 -68 127 0 0 -297c0,-19 15,-34 34,-34 19,0 34,15 34,34l0 16 225 -45c30,-6 49,3 43,38 -2,16 7,27 23,25l175 -27c26,-4 29,9 29,20l0 39c0,16 9,20 25,17l174 -31 -208 81c-16,6 -29,1 -29,-15l0 -16c0,-13 2,-19 -14,-13l-184 64c-15,5 -31,-8 -30,-24 2,-20 -7,-28 -29,-21l-200 59 0 130 127 0 0 68 -127 0 0 137 773 0 16 0 11 13c164,205 288,439 372,677 90,255 134,516 132,755l0 51 -47 -19c-31,-13 -63,-25 -96,-37 4,46 5,89 5,132 -400,-174 -758,-267 -1112,-280l1 124zm-179 70l0 0 -2 153c-80,10 -157,42 -235,80 -10,-7 -25,-10 -42,-6 -34,6 -67,36 -81,71 -99,52 -198,101 -294,112l0 -66c152,-39 258,-116 359,-189 92,-67 180,-131 295,-155zm-338 -546l0 0c-1,10 -1,20 -2,31 -110,12 -222,24 -336,44 -116,20 -236,50 -361,85 2,-12 4,-24 6,-36 124,-34 243,-62 359,-82 112,-19 224,-31 334,-42zm130 -322l0 0c101,-4 201,-7 301,-7 100,0 201,3 301,6 1,11 2,21 2,31 -101,-3 -203,-6 -304,-6 -101,0 -202,3 -303,7 1,-11 2,-21 3,-31zm583 -113l0 0c1,10 2,21 3,31 -98,-3 -195,-5 -293,-5 -97,1 -194,3 -292,6 1,-10 3,-21 4,-31 96,-3 193,-5 289,-5 96,0 193,2 289,4zm-594 225l0 0c104,-4 207,-8 310,-8 103,0 207,3 311,7 0,11 1,21 1,31 -104,-4 -208,-8 -312,-7 -104,0 -208,4 -312,8 0,-10 1,-21 2,-31zm-670 -162l0 0c104,-16 206,-30 306,-39 99,-9 197,-15 294,-20 -7,43 -14,86 -20,129 -6,43 -11,86 -16,129 -106,9 -213,18 -322,33 -110,16 -224,38 -341,65 13,-49 27,-99 43,-149 17,-49 36,-99 56,-148zm558 270l0 0c-1,10 -2,21 -2,31 -109,10 -219,21 -330,39 -114,17 -231,44 -352,75 3,-12 5,-24 8,-36 120,-30 236,-55 349,-72 110,-17 219,-27 327,-37zm-12 199l0 0c-1,10 -1,21 -2,31 -111,13 -225,27 -340,49 -119,23 -242,56 -370,96 2,-12 4,-24 6,-36 127,-39 249,-71 366,-93 115,-21 228,-35 340,-47zm1469 -339l0 0c3,12 7,24 10,36 -112,-22 -221,-41 -328,-53 -105,-13 -209,-20 -312,-27 0,-11 -1,-21 -2,-32 101,7 204,14 308,26 105,11 213,29 324,50zm-45 -130l0 0c4,12 9,24 13,36 -106,-18 -210,-33 -311,-42 -100,-10 -200,-16 -298,-22 -2,-10 -3,-20 -5,-31 98,5 196,11 294,20 101,9 202,22 307,39zm81 261l0 0c3,12 6,24 9,36 -118,-27 -232,-50 -342,-65 -109,-15 -217,-25 -322,-33 -1,-11 -2,-21 -3,-32 105,9 212,17 320,32 109,14 222,36 338,62zm49 235l0 0c2,12 4,24 6,36 -125,-36 -246,-66 -362,-86 -113,-20 -225,-32 -335,-44 -1,-10 -1,-20 -2,-31 109,11 221,23 334,42 115,19 235,49 359,83zm-23 -117l0 0c3,12 5,24 7,36 -121,-32 -238,-59 -352,-76 -111,-18 -221,-28 -329,-38 -1,-11 -2,-21 -2,-32 107,10 217,20 327,37 113,17 229,42 349,73zm-781 -117l0 0c1,11 1,21 1,31 -106,-5 -212,-9 -318,-9 -106,0 -212,5 -318,10 0,-11 1,-21 2,-31 106,-5 211,-9 316,-9 106,-1 211,4 317,8zm822 347l0 0c2,12 4,24 6,36 -129,-41 -251,-74 -370,-97 -115,-22 -229,-36 -340,-48 -1,-11 -1,-21 -2,-32 111,13 224,26 339,47 118,22 240,55 367,94zm-2063 -727l0 0c318,-30 626,-49 932,-49 305,0 613,18 932,49 6,12 12,24 17,36 -326,-34 -640,-54 -950,-54 -310,0 -625,20 -949,54 5,-12 11,-24 18,-36zm861 -319l0 0c0,34 0,68 -1,102 -124,0 -247,1 -371,4 -124,3 -250,8 -376,14 26,-40 53,-80 81,-120 111,0 222,0 333,0 111,0 222,0 334,0zm940 201l0 0c8,12 14,25 21,37 -302,-23 -598,-37 -890,-37 -292,0 -587,14 -889,37 6,-12 13,-25 20,-37 294,-19 583,-30 869,-30 286,-1 574,11 869,30zm-147 -201l0 0c34,40 65,80 95,120 -71,-4 -142,-7 -212,-9 -69,-3 -139,-4 -208,-6 -15,-35 -30,-70 -47,-105 62,0 124,0 186,0 62,0 124,0 186,0zm-445 0l0 0c14,34 27,69 39,104 -104,-1 -208,-2 -312,-2 -2,-34 -4,-68 -7,-102 93,0 187,0 280,0zm845 1288l0 0c1,15 1,30 1,45 -125,-52 -245,-96 -362,-132 128,23 249,52 361,87zm-1899 -87l0 0c-117,36 -237,80 -361,132 0,-15 0,-30 0,-45 112,-35 233,-64 361,-87zm780 -329l0 0c3,3 5,7 5,11 0,4 -2,8 -5,11l0 0c-3,3 -6,5 -11,5 -4,0 -8,-2 -11,-5l0 0c-3,-3 -5,-7 -5,-11 0,-4 2,-8 5,-11l0 0c3,-3 7,-5 11,-5 5,0 8,2 11,5l0 0z"/>
   <path class="fil0" d="M1338 2918c-93,-41 -349,-90 -632,21 -238,95 -345,112 -613,74 170,103 490,59 674,3 300,-90 534,30 534,31l37 20 37 -20c1,-1 235,-121 534,-31 185,56 505,100 674,-3 -267,38 -375,21 -613,-74 -282,-111 -539,-62 -632,-21z"/>
  </g>
  <g id="_792775366384">
   <g>
    <path class="fil1" d="M7502 1292c55,3 106,6 152,7 45,2 86,3 123,3 36,0 77,-1 123,-3 47,-1 99,-4 157,-7l0 77c-60,2 -98,9 -115,22 -16,12 -24,46 -24,101l0 315 459 0 0 -293c0,-63 -8,-103 -24,-119 -17,-16 -55,-25 -115,-26l0 -77c55,3 105,6 151,7 46,2 88,3 125,3 34,0 75,-1 121,-3 47,-1 100,-4 159,-7l0 78c-61,0 -99,8 -115,24 -16,17 -24,57 -24,120l0 747c0,64 8,104 24,120 17,16 55,24 115,24l0 78c-60,-3 -113,-6 -159,-8 -45,-1 -84,-2 -117,-2 -31,0 -71,1 -117,2 -47,2 -101,5 -163,8l0 -78c61,0 99,-8 115,-25 16,-16 24,-56 24,-119l0 -372 -459 0 0 380c0,65 8,104 23,116 16,12 54,19 116,20l0 78c-58,-3 -111,-6 -156,-8 -46,-1 -85,-2 -117,-2 -31,0 -70,1 -117,2 -48,2 -103,5 -165,8l0 -78c60,-1 98,-9 115,-25 17,-15 26,-53 26,-113l0 -778c0,-53 -8,-85 -25,-98 -16,-13 -55,-20 -116,-21l0 -78z"/>
    <path class="fil1" d="M8892 1849c0,-38 -7,-62 -19,-73 -13,-10 -47,-17 -104,-20l0 -70c76,-2 144,-5 205,-9 61,-3 116,-8 166,-12l0 564c0,58 11,99 31,123 21,24 54,36 101,36 42,0 79,-11 112,-32 33,-21 59,-52 79,-92l0 -415c0,-38 -7,-62 -20,-73 -12,-10 -47,-17 -103,-21l1 -69c74,-2 141,-5 202,-9 60,-3 117,-8 169,-12l0 642c0,46 5,74 16,84 11,9 37,15 78,17l0 70 -83 0c-41,0 -83,0 -124,1 -42,1 -85,2 -128,4l-5 -116c-34,43 -76,76 -127,98 -51,21 -111,32 -178,32 -90,0 -157,-23 -202,-71 -45,-47 -67,-119 -67,-214l0 -363z"/>
    <path class="fil1" d="M9911 1426c0,-35 -7,-58 -21,-69 -14,-10 -45,-16 -95,-17l0 -72c59,-1 119,-4 179,-7 61,-3 123,-7 186,-13l0 545c36,-44 74,-76 115,-97 41,-21 86,-31 136,-31 97,0 177,37 239,111 62,74 94,169 94,285 0,133 -35,239 -105,318 -69,79 -162,118 -277,118 -74,0 -152,-23 -236,-71 -24,-14 -39,-21 -46,-21 -8,0 -22,7 -41,22 -19,15 -44,39 -75,70l-53 0 0 -1071zm249 514l0 0 0 390c21,27 45,47 71,62 27,14 55,21 83,21 60,0 103,-25 129,-75 26,-50 39,-136 39,-255 0,-107 -13,-185 -38,-234 -26,-48 -67,-73 -123,-73 -37,0 -72,16 -102,47 -31,30 -51,69 -59,117z"/>
   </g>
   <g>
    <path class="fil1" d="M3413 1292c38,2 79,4 121,5 42,1 87,1 135,1 48,0 105,-1 171,-3 67,-2 110,-3 130,-3 163,0 283,26 359,77 76,51 114,132 114,241 0,121 -36,210 -109,268 -73,58 -184,87 -336,87 -22,0 -46,-1 -73,-2 -27,-1 -60,-3 -98,-6l0 304c0,62 9,101 25,118 17,17 54,26 110,26l35 0 0 78c-67,-3 -126,-6 -177,-8 -50,-1 -92,-2 -126,-2 -27,0 -64,1 -112,2 -47,2 -104,5 -169,8l0 -78c61,0 99,-8 116,-25 16,-17 25,-57 25,-119l0 -747c0,-63 -9,-102 -26,-119 -16,-16 -55,-25 -115,-25l0 -78zm414 585l0 0c10,0 25,1 46,3 21,2 36,2 45,2 81,0 140,-21 178,-63 37,-42 56,-108 56,-199 0,-87 -19,-150 -58,-189 -38,-39 -101,-58 -187,-58l-80 0 0 504z"/>
    <path class="fil1" d="M4549 1849c0,-38 -7,-63 -21,-74 -13,-11 -50,-17 -109,-19l0 -70c71,-2 137,-5 197,-9 60,-3 116,-8 169,-12l0 200c20,-63 50,-112 91,-147 41,-36 87,-53 140,-53 50,0 91,13 120,40 29,26 44,63 44,109 0,36 -10,64 -30,86 -20,22 -45,34 -76,34 -36,0 -64,-11 -84,-31 -20,-20 -29,-49 -29,-87 0,-13 1,-27 5,-40 3,-13 9,-27 16,-42 -52,7 -96,42 -131,107 -35,64 -52,144 -52,238l0 222c0,49 8,80 24,92 17,12 66,19 147,20l1 70c-54,-2 -106,-4 -155,-5 -48,-1 -94,-2 -136,-2 -30,0 -68,1 -113,2 -45,1 -94,3 -147,5l0 -70c58,-3 93,-10 108,-21 14,-10 21,-41 21,-91l0 -452z"/>
    <path class="fil1" d="M5968 2057l-563 4 0 18c0,106 22,186 65,241 43,54 105,82 187,82 59,0 109,-15 151,-44 41,-29 75,-73 100,-130l58 17c-25,86 -70,150 -133,191 -63,41 -148,61 -254,61 -132,0 -238,-37 -316,-112 -79,-75 -118,-176 -118,-302 0,-125 39,-226 117,-303 78,-77 181,-115 309,-115 120,0 216,33 288,101 72,67 109,157 109,269l0 22zm-229 -72l0 0c-1,-86 -15,-149 -41,-190 -26,-40 -66,-61 -120,-61 -54,0 -95,23 -125,67 -30,45 -46,108 -48,190l334 -6z"/>
    <path class="fil1" d="M6587 1739l12 -54 59 0 0 114 0 118 -59 0c-10,-56 -33,-99 -68,-130 -35,-30 -81,-45 -136,-45 -47,0 -85,9 -113,27 -28,19 -42,44 -42,75 0,52 60,95 179,131 25,7 44,13 57,17 87,27 148,58 182,95 34,36 51,85 51,147 0,79 -32,143 -94,191 -63,48 -147,72 -251,72 -45,0 -88,-6 -128,-18 -41,-12 -79,-30 -115,-55l-15 49 -62 0c1,-19 2,-44 4,-76 1,-32 2,-54 2,-65l0 -77 0 -51 62 0c6,72 27,126 65,163 37,36 91,54 160,54 51,0 91,-9 118,-29 28,-19 41,-46 41,-82 0,-54 -58,-98 -174,-133 -9,-2 -17,-5 -22,-6 -97,-28 -166,-62 -206,-100 -41,-39 -61,-89 -61,-150 0,-76 29,-137 86,-185 58,-48 133,-71 224,-71 51,0 95,6 135,18 39,12 76,31 109,56z"/>
    <path class="fil1" d="M7316 1739l12 -54 60 0 0 114 0 118 -60 0c-10,-56 -33,-99 -68,-130 -35,-30 -81,-45 -136,-45 -47,0 -85,9 -113,27 -28,19 -42,44 -42,75 0,52 60,95 180,131 24,7 43,13 56,17 87,27 148,58 182,95 34,36 51,85 51,147 0,79 -32,143 -94,191 -63,48 -147,72 -251,72 -45,0 -88,-6 -128,-18 -41,-12 -79,-30 -115,-55l-15 49 -62 0c1,-19 2,-44 4,-76 1,-32 2,-54 2,-65l0 -77 0 -51 62 0c6,72 27,126 65,163 37,36 91,54 160,54 51,0 91,-9 118,-29 28,-19 41,-46 41,-82 0,-54 -58,-98 -174,-133 -9,-2 -17,-5 -22,-6 -97,-28 -166,-62 -206,-100 -41,-39 -61,-89 -61,-150 0,-76 29,-137 86,-185 58,-48 133,-71 224,-71 51,0 95,6 135,18 39,12 76,31 109,56z"/>
   </g>
  </g>
  <g id="_792775369232">
   <path class="fil2" d="M5103 2846c-15,7 -27,14 -35,22 -8,9 -12,16 -12,24 0,3 0,4 1,6 0,1 1,2 2,2 0,0 2,-1 4,-1 2,-1 4,-1 6,-1 4,0 7,1 10,5 3,3 4,7 4,11 0,7 -1,12 -5,16 -4,3 -9,5 -15,5 -7,0 -13,-2 -17,-7 -4,-6 -6,-13 -6,-22 0,-15 5,-28 15,-40 10,-12 25,-22 44,-29l4 9zm68 0l0 0c-15,7 -27,14 -35,22 -8,9 -12,16 -12,24 0,3 0,5 1,6 0,1 1,2 2,2 0,0 2,-1 4,-1 2,-1 4,-1 6,-1 4,0 7,1 10,5 3,3 5,7 5,11 0,7 -2,12 -6,16 -4,3 -9,5 -15,5 -7,0 -13,-2 -17,-7 -4,-6 -7,-13 -7,-22 0,-15 6,-28 16,-40 10,-12 25,-22 44,-29l4 9z"/>
   <path class="fil2" d="M5263 2840l0 12c-9,1 -14,2 -17,3 -3,2 -4,4 -4,7 0,2 0,4 0,6 1,2 2,5 4,9l42 101 58 -101c2,-3 3,-6 4,-8 1,-3 1,-5 1,-7 0,-4 -2,-6 -5,-8 -3,-1 -10,-2 -19,-2l0 -12c8,0 15,1 20,1 6,0 10,0 14,0 4,0 9,0 14,0 6,0 13,-1 21,-1l0 12c-7,0 -13,2 -18,5 -4,4 -10,11 -17,22l-70 117 -11 67c-1,4 -2,8 -2,12 -1,4 -1,7 -1,8 0,5 2,8 5,10 3,3 10,4 20,5l0 12c-12,-1 -20,-2 -26,-2 -7,0 -12,0 -16,0 -4,0 -9,0 -15,0 -7,0 -16,1 -28,2l0 -12c10,-1 17,-2 21,-5 4,-3 7,-10 9,-20l13 -79 -47 -112c-5,-12 -10,-20 -14,-23 -5,-4 -10,-6 -18,-7l0 -12c9,0 17,1 23,1 6,0 12,0 16,0 4,0 9,0 15,0 7,0 16,-1 28,-1z"/>
   <path class="fil2" d="M5443 2927c19,0 34,6 45,18 11,12 17,28 17,48 0,34 -10,62 -28,85 -19,23 -41,35 -68,35 -19,0 -34,-6 -45,-19 -11,-12 -17,-29 -17,-51 0,-32 10,-59 29,-82 19,-23 41,-34 67,-34zm31 48l0 0c0,-12 -2,-21 -8,-28 -5,-7 -12,-10 -22,-10 -8,0 -16,2 -23,7 -7,5 -13,13 -19,22 -8,12 -13,28 -18,45 -4,18 -7,36 -7,54 0,12 3,21 9,28 5,6 13,10 22,10 9,0 16,-3 23,-7 7,-5 14,-12 19,-22 8,-12 13,-28 18,-45 4,-18 6,-36 6,-54z"/>
   <path class="fil2" d="M5584 3049c-2,8 -4,14 -6,20 -1,5 -2,10 -2,14 0,5 1,9 4,12 2,2 6,3 11,3 12,0 26,-9 41,-28 16,-19 26,-40 31,-63l17 -77 29 0 -29 130c-1,5 -2,10 -2,14 -1,4 -1,7 -1,10 0,4 1,7 3,10 2,3 4,4 7,4 7,0 13,-2 19,-7 7,-5 14,-14 22,-27l8 4c-9,15 -18,26 -28,34 -10,7 -20,11 -31,11 -9,0 -15,-2 -19,-6 -5,-4 -7,-11 -7,-19 0,-4 0,-9 1,-15 1,-5 2,-11 4,-18 -14,21 -27,36 -39,45 -11,9 -23,13 -35,13 -11,0 -19,-2 -25,-8 -6,-5 -9,-13 -9,-22 0,-5 0,-11 2,-18 2,-7 4,-16 8,-28l22 -62c2,-4 3,-8 4,-12 1,-3 1,-6 1,-9 0,-3 -1,-6 -3,-8 -2,-2 -4,-3 -7,-3 -5,0 -11,3 -18,9 -6,7 -13,16 -19,28l-9 -5c9,-16 18,-28 28,-36 9,-8 19,-12 30,-12 8,0 15,2 20,7 5,5 7,11 7,19 0,4 0,7 -1,12 -1,4 -2,8 -3,13l-26 71z"/>
   <path class="fil2" d="M5817 3032l-17 78 -29 0 29 -130c1,-5 2,-10 3,-14 0,-4 0,-7 0,-10 0,-4 -1,-8 -2,-11 -2,-3 -5,-4 -8,-4 -7,0 -13,3 -19,8 -6,6 -14,15 -22,27l-7 -5c8,-14 17,-25 27,-33 10,-7 21,-11 32,-11 8,0 15,2 19,6 5,5 7,11 7,19 0,4 -1,9 -1,14 -1,6 -2,12 -4,18 9,-19 18,-33 28,-43 9,-9 19,-14 28,-14 7,0 13,2 17,6 4,5 6,11 6,18 0,6 -1,10 -4,13 -3,4 -6,5 -10,5 -5,0 -9,-1 -11,-4 -3,-3 -4,-7 -4,-12 0,-1 0,-2 0,-4 0,-1 0,-2 0,-3 0,-2 0,-3 -1,-4 -1,-1 -1,-1 -2,-1 -8,0 -17,9 -29,28 -12,18 -21,39 -26,63z"/>
   <path class="fil2" d="M6116 2840c25,0 43,1 55,3 12,1 22,5 31,9 17,8 30,21 39,39 10,18 14,39 14,64 0,26 -5,51 -15,74 -10,23 -24,41 -41,54 -12,10 -26,16 -41,21 -15,4 -39,6 -72,6l-4 0 -74 0 0 -12c11,-1 18,-2 22,-5 4,-3 6,-10 8,-20l31 -186c1,-5 2,-9 2,-13 0,-4 1,-7 1,-8 0,-5 -2,-8 -6,-10 -3,-2 -10,-4 -19,-4l-1 -12 70 0zm17 12l0 0 -26 0 -41 245 18 0c24,0 42,-1 53,-3 11,-2 20,-6 29,-12 16,-10 28,-27 38,-51 9,-24 14,-51 14,-83 0,-34 -7,-59 -20,-74 -12,-15 -34,-22 -65,-22z"/>
   <path class="fil2" d="M6413 2927l28 0 -31 129c-1,6 -2,11 -3,15 -1,5 -1,9 -1,12 0,3 1,6 4,9 2,3 5,4 8,4 5,0 10,-3 16,-9 5,-6 10,-14 15,-26l9 3c-6,16 -14,28 -24,36 -9,9 -19,13 -30,13 -8,0 -14,-2 -18,-7 -4,-5 -7,-12 -7,-22 0,-3 1,-7 1,-11 1,-5 1,-9 2,-14 -11,18 -22,32 -33,40 -11,9 -22,14 -34,14 -13,0 -23,-4 -29,-13 -7,-9 -10,-21 -10,-37 0,-16 2,-33 8,-49 5,-17 12,-32 22,-45 9,-14 19,-24 31,-31 11,-8 23,-11 34,-11 9,0 17,2 23,5 6,4 11,10 14,17l5 -22zm-24 103l0 0 14 -60c-1,-11 -4,-19 -9,-25 -5,-6 -12,-9 -19,-9 -9,0 -17,4 -25,11 -8,7 -15,17 -21,29 -7,15 -13,30 -17,46 -4,16 -7,29 -7,41 0,11 2,20 6,25 3,5 9,8 16,8 5,0 10,-2 15,-5 5,-3 11,-8 17,-14 7,-9 14,-18 20,-27 6,-9 9,-16 10,-20z"/>
   <path class="fil2" d="M6528 3070c0,2 -1,4 -1,7 0,2 0,3 0,5 0,5 1,9 3,11 2,3 5,4 9,4 6,0 11,-3 16,-8 6,-6 12,-15 20,-28l8 4c-9,17 -17,29 -26,37 -9,7 -19,11 -31,11 -9,0 -16,-2 -21,-7 -5,-5 -8,-12 -8,-20 0,-3 1,-6 1,-9 1,-3 2,-8 4,-15l27 -92c1,-2 1,-5 2,-7 0,-3 0,-5 0,-7 0,-4 -1,-7 -2,-9 -2,-3 -5,-4 -8,-4 -5,0 -10,3 -15,9 -5,5 -11,14 -17,26l-9 -4c7,-15 15,-27 25,-35 10,-8 20,-13 32,-13 7,0 13,2 18,6 4,4 7,10 7,16 0,5 -2,13 -5,24l0 1 -29 97zm25 -212l0 0c4,0 8,1 12,4 3,2 4,5 4,9 0,7 -2,12 -5,16 -4,4 -9,7 -15,7 -4,0 -7,-2 -10,-5 -3,-3 -4,-7 -4,-11 0,-6 1,-11 5,-15 3,-4 8,-5 13,-5z"/>
   <path class="fil2" d="M6642 3062c-1,4 -2,8 -2,11 -1,3 -1,6 -1,8 0,5 1,8 4,11 2,3 5,4 9,4 5,0 10,-3 16,-9 6,-6 12,-15 19,-27l8 4c-8,16 -17,29 -26,37 -10,8 -20,12 -31,12 -9,0 -15,-3 -20,-7 -5,-5 -8,-12 -8,-20 0,-3 0,-7 1,-10 0,-4 2,-10 3,-18l40 -181c1,-4 2,-8 3,-12 0,-3 1,-6 1,-9 0,-8 -7,-13 -21,-14 -3,0 -4,0 -6,0l3 -10c3,0 7,0 10,0 4,0 8,0 13,0 5,0 10,0 16,0 6,-1 13,-1 20,-2l-51 232z"/>
   <path class="fil2" d="M6778 3021c-1,3 -2,7 -4,12 -6,19 -9,32 -9,39 0,5 2,9 4,11 2,3 6,4 10,4 6,0 12,-2 18,-7 7,-5 14,-13 21,-22 7,-9 13,-18 18,-27 5,-9 8,-15 9,-18l18 -83 29 0 -31 142c-11,49 -22,82 -35,97 -13,16 -32,24 -56,24 -15,0 -28,-3 -38,-8 -10,-6 -15,-13 -15,-22 0,-4 1,-7 3,-9 2,-2 5,-3 9,-3 5,0 10,2 13,7 4,4 6,10 6,18l0 2c2,2 5,3 8,3 4,1 8,2 12,2 19,0 33,-9 42,-25 9,-16 19,-54 29,-115 -12,20 -25,36 -38,47 -13,11 -26,17 -38,17 -9,0 -15,-3 -19,-7 -5,-5 -7,-11 -7,-20 0,-8 3,-22 9,-44l1 -4 17 -56c1,-3 2,-7 2,-11 1,-4 1,-7 1,-10 0,-4 -1,-7 -3,-9 -2,-2 -5,-3 -9,-3 -6,0 -11,2 -17,8 -6,6 -12,15 -19,28l-8 -4c8,-16 16,-28 26,-37 9,-8 20,-12 32,-12 8,0 15,3 19,7 5,4 7,10 7,18 0,4 -1,8 -2,13 -1,5 -2,11 -4,18l-11 39z"/>
   <path class="fil2" d="M7104 2840l127 215 26 -152c1,-6 2,-12 3,-17 0,-6 1,-10 1,-13 0,-8 -3,-13 -7,-16 -4,-3 -12,-5 -22,-5l0 -12c9,0 16,1 22,1 6,0 11,0 15,0 3,0 7,0 13,0 5,0 12,-1 21,-1l0 12 -1 0c-9,0 -15,2 -19,6 -4,5 -8,17 -11,38l-37 211 -8 4 -132 -227 -27 162c-2,6 -2,12 -3,17 0,6 -1,10 -1,14 0,7 2,12 7,16 4,3 11,4 22,5l0 12c-11,-1 -19,-2 -24,-2 -5,0 -10,0 -13,0 -3,0 -6,0 -11,0 -4,0 -12,1 -23,2l0 -13 1 0c15,0 24,-13 29,-40 1,-1 1,-2 1,-3l30 -170c0,-2 0,-4 1,-6 0,-2 0,-3 0,-4 0,-7 -3,-12 -10,-16 -6,-4 -15,-6 -27,-6l-1 0 0 -12c6,0 12,1 17,1 4,0 8,0 11,0 4,0 8,0 13,0 4,0 10,-1 17,-1z"/>
   <path class="fil2" d="M7425 3055l8 5c-9,18 -19,31 -32,40 -12,9 -26,13 -43,13 -16,0 -29,-5 -38,-16 -9,-10 -13,-25 -13,-43 0,-19 3,-37 11,-55 7,-17 17,-32 31,-45 9,-9 19,-16 29,-20 11,-5 22,-7 34,-7 12,0 22,3 29,8 6,6 10,13 10,23 0,19 -9,33 -28,44 -18,10 -45,15 -79,16 -2,9 -4,17 -4,24 -1,7 -2,14 -2,20 0,12 3,21 8,28 5,6 12,9 22,9 11,0 21,-4 31,-11 10,-8 19,-19 26,-33zm-79 -47l0 0c27,0 47,-5 61,-13 13,-8 20,-20 20,-36 0,-7 -2,-12 -6,-16 -4,-4 -10,-6 -16,-6 -13,0 -25,6 -35,18 -10,12 -18,30 -24,53z"/>
   <path class="fil2" d="M7571 2927c-14,27 -24,52 -32,78 -8,25 -12,45 -12,61 0,9 2,16 5,20 2,5 7,7 13,7 13,0 26,-13 41,-38 14,-24 27,-57 37,-97l6 -28 24 0c-9,34 -16,62 -20,83 -4,21 -6,37 -6,49 0,10 1,18 5,23 3,5 9,8 15,8 9,0 18,-5 27,-15 10,-9 18,-23 26,-40 5,-11 9,-21 12,-32 3,-11 5,-18 5,-22 0,-1 -2,-6 -5,-15 -2,-8 -4,-15 -4,-21 0,-7 1,-12 3,-16 2,-3 5,-5 8,-5 4,0 8,2 10,5 2,4 3,10 3,18 0,13 -2,28 -7,45 -4,17 -10,34 -17,51 -10,21 -22,38 -35,49 -14,12 -27,18 -41,18 -11,0 -19,-4 -24,-10 -5,-7 -7,-18 -7,-33 0,-6 0,-11 1,-16 0,-5 1,-9 3,-13 -12,25 -24,44 -36,55 -11,11 -24,17 -37,17 -11,0 -19,-4 -24,-11 -6,-7 -9,-17 -9,-31 0,-19 4,-39 13,-59 8,-20 23,-45 44,-74 -6,4 -12,7 -18,9 -6,2 -11,3 -17,3 -3,0 -8,0 -14,-1 -6,-1 -10,-1 -13,-1 -4,0 -9,2 -13,5 -4,4 -9,11 -14,20l-6 -4c7,-14 14,-24 21,-30 6,-6 13,-9 21,-9 3,0 9,1 18,2 8,1 15,2 20,2 3,0 7,-1 10,-1 3,-1 8,-3 13,-6l7 0z"/>
   <path class="fil2" d="M7866 2950c-5,-5 -10,-9 -15,-11 -6,-2 -12,-3 -20,-3 -10,0 -18,3 -24,8 -6,6 -9,13 -9,22 0,13 11,26 33,39l2 2c18,10 28,19 33,25 4,7 6,15 6,25 0,16 -6,30 -17,40 -12,11 -26,16 -44,16 -17,0 -30,-4 -40,-13 -10,-8 -16,-19 -16,-32 0,-6 2,-11 4,-14 3,-4 6,-5 10,-5 3,0 6,1 8,3 3,3 4,6 4,10 0,4 -2,8 -4,13 -3,5 -4,7 -4,8 0,5 3,9 11,14 7,4 16,7 25,7 11,0 20,-4 27,-10 7,-6 10,-14 10,-24 0,-13 -11,-27 -33,-40 -6,-3 -10,-5 -12,-7 -10,-6 -17,-12 -21,-19 -5,-7 -7,-15 -7,-25 0,-15 6,-28 16,-37 11,-10 25,-15 41,-15 15,0 28,3 38,11 11,7 16,16 16,27 0,5 -1,9 -3,12 -3,3 -6,5 -9,5 -4,0 -6,-2 -9,-4 -2,-3 -3,-6 -3,-11 0,-2 1,-5 2,-8 0,-3 2,-6 4,-9z"/>
   <path class="fil2" d="M8266 3128l0 11c-8,6 -16,11 -26,14 -9,3 -18,4 -27,4 -17,0 -30,-3 -41,-11 -10,-8 -17,-19 -20,-33 -2,1 -5,1 -8,1 -3,0 -6,0 -11,0 -32,0 -58,-12 -78,-34 -21,-23 -31,-52 -31,-89 0,-18 3,-36 8,-53 5,-17 13,-32 23,-46 13,-18 28,-31 47,-41 18,-9 38,-14 59,-14 32,0 59,11 79,33 20,22 30,51 30,88 0,32 -7,62 -23,89 -16,27 -38,46 -64,58 3,13 7,22 14,28 7,6 16,9 28,9 8,0 15,-2 21,-4 7,-2 13,-5 20,-10zm-194 -66l0 0c8,-5 17,-8 26,-10 9,-3 18,-4 27,-4 14,0 26,4 35,10 9,7 16,17 19,30 17,-13 30,-33 40,-59 10,-27 15,-56 15,-87 0,-28 -6,-51 -19,-68 -14,-16 -31,-25 -53,-25 -15,0 -29,4 -41,13 -13,8 -24,20 -33,35 -9,15 -16,33 -21,52 -5,20 -8,40 -8,59 0,11 1,21 3,29 2,8 5,17 10,25zm3 8l0 0c8,11 16,19 24,24 9,5 19,7 30,7 3,0 7,0 10,0 4,-1 8,-1 12,-2 -1,-12 -6,-21 -13,-28 -7,-6 -18,-10 -30,-10 -6,0 -12,1 -17,3 -5,1 -11,3 -16,6z"/>
   <path class="fil2" d="M8344 3049c-3,8 -5,14 -6,20 -2,5 -2,10 -2,14 0,5 1,9 3,12 2,2 6,3 11,3 12,0 26,-9 42,-28 15,-19 26,-40 31,-63l17 -77 29 0 -29 130c-1,5 -2,10 -3,14 0,4 -1,7 -1,10 0,4 1,7 3,10 2,3 4,4 7,4 7,0 14,-2 20,-7 6,-5 13,-14 22,-27l7 4c-8,15 -18,26 -28,34 -9,7 -20,11 -31,11 -8,0 -15,-2 -19,-6 -4,-4 -7,-11 -7,-19 0,-4 1,-9 2,-15 1,-5 2,-11 3,-18 -14,21 -27,36 -38,45 -11,9 -23,13 -36,13 -11,0 -19,-2 -25,-8 -6,-5 -9,-13 -9,-22 0,-5 1,-11 3,-18 1,-7 4,-16 8,-28l22 -62c1,-4 3,-8 3,-12 1,-3 2,-6 2,-9 0,-3 -1,-6 -3,-8 -2,-2 -5,-3 -8,-3 -5,0 -11,3 -17,9 -7,7 -13,16 -20,28l-8 -5c8,-16 18,-28 27,-36 10,-8 20,-12 30,-12 9,0 16,2 20,7 5,5 8,11 8,19 0,4 0,7 -1,12 -1,4 -2,8 -4,13l-25 71z"/>
   <path class="fil2" d="M8632 3055l8 5c-9,18 -20,31 -32,40 -12,9 -26,13 -43,13 -16,0 -29,-5 -38,-16 -9,-10 -14,-25 -14,-43 0,-19 4,-37 12,-55 7,-17 17,-32 30,-45 9,-9 19,-16 30,-20 11,-5 22,-7 34,-7 12,0 22,3 28,8 7,6 11,13 11,23 0,19 -10,33 -28,44 -19,10 -45,15 -80,16 -1,9 -3,17 -4,24 -1,7 -1,14 -1,20 0,12 2,21 7,28 5,6 13,9 23,9 11,0 21,-4 31,-11 10,-8 18,-19 26,-33zm-79 -47l0 0c27,0 47,-5 60,-13 14,-8 21,-20 21,-36 0,-7 -2,-12 -6,-16 -4,-4 -10,-6 -17,-6 -13,0 -24,6 -34,18 -10,12 -18,30 -24,53z"/>
   <path class="fil2" d="M8788 2950c-4,-5 -9,-9 -14,-11 -6,-2 -12,-3 -20,-3 -10,0 -18,3 -24,8 -6,6 -9,13 -9,22 0,13 10,26 32,39l3 2c17,10 28,19 32,25 5,7 7,15 7,25 0,16 -6,30 -17,40 -12,11 -26,16 -44,16 -17,0 -30,-4 -40,-13 -11,-8 -16,-19 -16,-32 0,-6 2,-11 4,-14 3,-4 6,-5 10,-5 3,0 6,1 8,3 3,3 4,6 4,10 0,4 -2,8 -5,13 -2,5 -4,7 -4,8 0,5 4,9 12,14 7,4 16,7 25,7 11,0 20,-4 27,-10 7,-6 10,-14 10,-24 0,-13 -11,-27 -34,-40 -5,-3 -9,-5 -12,-7 -9,-6 -16,-12 -20,-19 -5,-7 -7,-15 -7,-25 0,-15 5,-28 16,-37 11,-10 25,-15 41,-15 15,0 28,3 38,11 11,7 16,16 16,27 0,5 -1,9 -4,12 -2,3 -5,5 -8,5 -4,0 -7,-2 -9,-4 -2,-3 -3,-6 -3,-11 0,-2 0,-5 1,-8 1,-3 3,-6 4,-9z"/>
   <path class="fil2" d="M8917 2877l-13 62 44 0 -2 10 -44 0 -25 125c-1,2 -1,4 -1,5 0,1 0,1 0,2 0,5 1,10 4,13 3,3 6,5 11,5 7,0 14,-4 22,-12 7,-8 14,-19 21,-33l7 4c-8,18 -17,32 -26,41 -10,9 -21,14 -33,14 -12,0 -20,-3 -26,-8 -6,-5 -9,-13 -9,-23 0,-2 1,-5 1,-9 1,-3 2,-8 3,-14l23 -110 -29 0 1 -10 31 0 13 -62 27 0z"/>
   <path class="fil2" d="M8985 2926c15,-6 27,-14 35,-22 8,-8 12,-16 12,-24 0,-2 0,-4 -1,-5 0,-2 -1,-2 -2,-2 -1,0 -2,0 -4,1 -2,0 -4,0 -6,0 -4,0 -8,-1 -10,-4 -3,-3 -5,-7 -5,-12 0,-6 2,-12 6,-15 4,-4 9,-6 15,-6 7,0 13,2 17,8 4,5 7,12 7,21 0,15 -6,28 -16,40 -10,12 -25,22 -44,29l-4 -9zm69 0l0 0c14,-6 26,-14 34,-22 8,-8 13,-16 13,-24 0,-2 -1,-4 -1,-5 -1,-2 -2,-2 -3,-2 0,0 -2,0 -4,1 -2,0 -4,0 -6,0 -4,0 -7,-1 -10,-4 -3,-3 -4,-7 -4,-12 0,-6 2,-12 5,-15 4,-4 9,-6 15,-6 7,0 13,2 17,8 5,5 7,12 7,21 0,15 -5,28 -16,40 -10,12 -25,22 -44,29l-3 -9z"/>
  </g>
 </g>
</svg>
