<?xml version="1.0"?>
<svg width="640" height="480" xmlns="http://www.w3.org/2000/svg" xmlns:svg="http://www.w3.org/2000/svg" clip-rule="evenodd">
 <!-- Created with SVG-edit - http://svg-edit.googlecode.com/ -->
 <g>
  <title>Layer 1</title>
  <g stroke="null" id="_792775366128">
   <path stroke="null" id="svg_5" d="m340.881016,245.01062l0,0.277949l0.277949,20.846182c60.037003,0.972822 119.379134,10.006167 164.545861,27.100036c-0.555898,-30.157476 -6.531804,-62.816494 -17.788742,-94.78064c-11.117964,-31.547222 -27.377985,-62.399571 -48.780065,-89.638582l-219.718756,0c-21.541054,27.239011 -37.801076,58.09136 -48.91904,89.638582c-11.256938,31.964145 -17.093869,64.623163 -17.788742,94.78064c45.166727,-17.093869 104.508858,-26.127214 164.545861,-27.100036l0.277949,-20.846182l0,-0.277949c-11.117964,0.277949 -22.374902,0.833847 -33.63184,1.52872c0,-1.389745 0,-2.918465 0.138975,-4.308211c11.117964,-0.555898 22.374902,-1.250771 33.492865,-1.52872l0,-0.416924c0,-3.196415 1.250771,-6.11488 3.474364,-8.199498l0,0l0.277949,-0.416924c-12.22976,0.277949 -24.598494,0.833847 -36.967229,1.52872c0,-1.52872 0.138975,-2.918465 0.138975,-4.308211c15.009251,-0.833847 29.879527,-1.52872 44.749804,-1.52872c14.870276,0 29.740553,0.694873 44.610829,1.389745c0.138975,1.389745 0.138975,2.918465 0.277949,4.308211c-12.368735,-0.694873 -24.737469,-1.250771 -36.967229,-1.389745l0.277949,0.416924l0.138975,0c2.084618,2.084618 3.335389,5.003084 3.335389,8.199498l0,0.416924c11.117964,0.277949 22.374902,0.833847 33.492865,1.389745c0.138975,1.52872 0.138975,2.918465 0.138975,4.308211c-11.117964,-0.555898 -22.374902,-1.250771 -33.63184,-1.389745zm-24.598494,91.7232l0,0c-10.006167,1.667695 -20.012334,5.975905 -30.157476,11.117964c-1.667695,5.142058 -6.670778,9.867193 -11.812836,10.840015c-2.640516,0.555898 -4.864109,0 -6.392829,-1.389745c-12.785658,6.670778 -25.710291,12.785658 -38.912873,14.592327c0.416924,9.450269 2.223593,19.456436 5.142058,29.601578c0.555898,1.945644 1.250771,3.891287 1.945644,5.975905c20.429258,7.087702 52.671353,-5.142058 79.771389,-46.556473l0.416924,-24.181571zm9.17232,19.734385l0,0l1.52872,-104.786807c0.694873,0.277949 1.389745,0.277949 2.223593,0.277949c0.833847,0 1.52872,0 2.362567,-0.277949l1.389745,104.786807l-7.504625,0zm7.6436,4.864109l0,0l-7.782575,0l-0.138975,10.562065l8.060524,0l-0.138975,-10.562065zm0.277949,15.2872l0,0l-8.199498,0l-0.138975,6.531804l8.338473,0l0,-6.531804zm0.138975,11.395913l0,0l-8.477447,0l-0.138975,4.169236l8.616422,0l0,-4.169236zm0.138975,8.894371l0,0l-8.755396,0l-0.138975,2.640516l8.894371,0l0,-2.640516zm0,7.504625l0,0l-8.894371,0l0,1.52872l9.033345,0l-0.138975,-1.52872zm0.138975,6.253855l0,0l-9.17232,0l0,0.833847l9.17232,0l0,-0.833847zm8.755396,-49.752887l0,0c27.100036,41.414414 59.342131,53.644174 79.771389,46.556473c0.694873,-2.084618 1.389745,-4.030262 1.945644,-5.975905c3.05744,-10.145142 4.725135,-20.151309 5.142058,-29.601578c-13.341556,-1.806669 -26.266189,-7.921549 -39.190822,-14.731302c-1.52872,1.111796 -3.613338,1.52872 -6.11488,1.111796c-5.003084,-0.972822 -9.728218,-5.420007 -11.534887,-10.423091c-10.145142,-5.142058 -20.290284,-9.450269 -30.296451,-11.117964l0.277949,24.181571zm-0.416924,-33.770814l0,0l-0.416924,-21.263105c15.982073,3.335389 28.211833,12.22976 40.997491,21.541054c14.036429,10.145142 28.767731,20.846182 49.891862,26.266189l0,9.17232c-13.202582,-1.52872 -26.822087,-8.199498 -40.580567,-15.426175c-1.667695,-5.142058 -6.531804,-9.589244 -11.534887,-10.562065c-2.501542,-0.416924 -4.725135,0 -6.253855,1.250771c-10.562065,-5.281033 -21.263105,-9.589244 -32.10312,-10.978989zm-0.555898,-30.991324l0,0c18.900538,3.335389 32.520044,13.202582 46.695447,23.625673c14.036429,10.145142 28.906705,20.846182 50.169811,25.571316l3.613338,0.833847l0,3.752313l0,15.2872l0,2.362567l-1.667695,1.389745l-1.389745,1.111796c-0.277949,10.70104 -2.084618,22.374902 -5.558982,34.048764c-2.640516,8.616422 -5.975905,17.093869 -10.423091,25.293367c11.395913,0.138975 23.069774,-2.084618 39.74672,-6.670778c-10.423091,8.338473 -25.710291,12.368735 -41.136465,13.619505c-5.697956,-2.223593 -11.951811,-5.281033 -19.039513,-9.033345c-15.426175,-8.894371 -53.366225,-19.595411 -73.37856,-3.613338c-20.429258,-15.426175 -56.979564,-5.975905 -73.239585,3.613338c-7.226676,3.752313 -13.341556,6.809753 -19.178487,9.033345c-15.426175,-1.250771 -30.5744,-5.281033 -41.136465,-13.619505c16.676945,4.58616 28.489782,6.809753 39.74672,6.670778c-4.308211,-8.199498 -7.782575,-16.676945 -10.284116,-25.293367c-3.474364,-11.673862 -5.420007,-23.347724 -5.697956,-34.048764l-1.250771,-1.111796l-1.806669,-1.389745l0,-2.362567l0,-15.2872l0,-3.752313l3.752313,-0.833847c21.263105,-4.725135 35.994407,-15.426175 50.030836,-25.571316c14.314378,-10.423091 27.794909,-20.290284 46.695447,-23.625673l0.277949,-17.232844c-49.335964,1.806669 -98.949876,14.731302 -154.539694,38.912873c-0.138975,-5.975905 0.138975,-11.951811 0.555898,-18.34464c-4.58616,1.667695 -9.033345,3.335389 -13.341556,5.142058l-6.531804,2.640516l0,-7.087702c-0.277949,-33.214916 5.836931,-69.487273 18.34464,-104.925782c11.673862,-33.075942 28.906705,-65.595985 51.837505,-94.085767l1.389745,-1.806669l2.223593,0l107.427323,0l0,-19.039513l-17.649767,0l0,-9.450269l17.649767,0l0,-41.27544c0,-2.640516 2.084618,-4.725135 4.725135,-4.725135c2.640516,0 4.725135,2.084618 4.725135,4.725135l0,2.223593l31.269273,-6.253855c4.169236,-0.833847 6.809753,0.416924 5.975905,5.281033c-0.277949,2.223593 0.972822,3.752313 3.196415,3.474364l24.320545,-3.752313c3.613338,-0.555898 4.030262,1.250771 4.030262,2.779491l0,5.420007c0,2.223593 1.250771,2.779491 3.474364,2.362567l24.181571,-4.308211l-28.906705,11.256938c-2.223593,0.833847 -4.030262,0.138975 -4.030262,-2.084618l0,-2.223593c0,-1.806669 0.277949,-2.640516 -1.945644,-1.806669l-25.571316,8.894371c-2.084618,0.694873 -4.308211,-1.111796 -4.169236,-3.335389c0.277949,-2.779491 -0.972822,-3.891287 -4.030262,-2.918465l-27.794909,8.199498l0,18.066691l17.649767,0l0,9.450269l-17.649767,0l0,19.039513l107.427323,0l2.223593,0l1.52872,1.806669c22.791825,28.489782 40.024669,61.009825 51.698531,94.085767c12.507709,35.438509 18.622589,71.710865 18.34464,104.925782l0,7.087702l-6.531804,-2.640516c-4.308211,-1.806669 -8.755396,-3.474364 -13.341556,-5.142058c0.555898,6.392829 0.694873,12.368735 0.694873,18.34464c-55.589818,-24.181571 -105.342705,-37.106204 -154.539694,-38.912873l0.138975,17.232844zm-24.876444,9.728218l0,0l-0.277949,21.263105c-11.117964,1.389745 -21.819004,5.836931 -32.659018,11.117964c-1.389745,-0.972822 -3.474364,-1.389745 -5.836931,-0.833847c-4.725135,0.833847 -9.311295,5.003084 -11.256938,9.867193c-13.75848,7.226676 -27.51696,14.036429 -40.858516,15.565149l0,-9.17232c21.124131,-5.420007 35.855433,-16.121047 49.891862,-26.266189c12.785658,-9.311295 25.015418,-18.205665 40.997491,-21.541054zm-46.973396,-75.880102l0,0c-0.138975,1.389745 -0.138975,2.779491 -0.277949,4.308211c-15.2872,1.667695 -30.852349,3.335389 -46.695447,6.11488c-16.121047,2.779491 -32.797993,6.948727 -50.169811,11.812836c0.277949,-1.667695 0.555898,-3.335389 0.833847,-5.003084c17.232844,-4.725135 33.770814,-8.616422 49.891862,-11.395913c15.565149,-2.640516 31.130298,-4.308211 46.417498,-5.836931zm18.066691,-44.749804l0,0c14.036429,-0.555898 27.933884,-0.972822 41.831338,-0.972822c13.897455,0 27.933884,0.416924 41.831338,0.833847c0.138975,1.52872 0.277949,2.918465 0.277949,4.308211c-14.036429,-0.416924 -28.211833,-0.833847 -42.248262,-0.833847c-14.036429,0 -28.072858,0.416924 -42.109287,0.972822c0.138975,-1.52872 0.277949,-2.918465 0.416924,-4.308211zm81.02216,-15.704124l0,0c0.138975,1.389745 0.277949,2.918465 0.416924,4.308211c-13.619505,-0.416924 -27.100036,-0.694873 -40.719542,-0.694873c-13.480531,0.138975 -26.961062,0.416924 -40.580567,0.833847c0.138975,-1.389745 0.416924,-2.918465 0.555898,-4.308211c13.341556,-0.416924 26.822087,-0.694873 40.163644,-0.694873c13.341556,0 26.822087,0.277949 40.163644,0.555898zm-82.55088,31.269273l0,0c14.453353,-0.555898 28.767731,-1.111796 43.082109,-1.111796c14.314378,0 28.767731,0.416924 43.221084,0.972822c0,1.52872 0.138975,2.918465 0.138975,4.308211c-14.453353,-0.555898 -28.906705,-1.111796 -43.360058,-0.972822c-14.453353,0 -28.906705,0.555898 -43.360058,1.111796c0,-1.389745 0.138975,-2.918465 0.277949,-4.308211zm-93.112945,-22.513876l0,0c14.453353,-2.223593 28.628756,-4.169236 42.526211,-5.420007c13.75848,-1.250771 27.377985,-2.084618 40.858516,-2.779491c-0.972822,5.975905 -1.945644,11.951811 -2.779491,17.927716c-0.833847,5.975905 -1.52872,11.951811 -2.223593,17.927716c-14.731302,1.250771 -29.601578,2.501542 -44.749804,4.58616c-15.2872,2.223593 -31.130298,5.281033 -47.39032,9.033345c1.806669,-6.809753 3.752313,-13.75848 5.975905,-20.707207c2.362567,-6.809753 5.003084,-13.75848 7.782575,-20.568233zm77.547796,37.523127l0,0c-0.138975,1.389745 -0.277949,2.918465 -0.277949,4.308211c-15.148225,1.389745 -30.435425,2.918465 -45.8616,5.420007c-15.843098,2.362567 -32.10312,6.11488 -48.91904,10.423091c0.416924,-1.667695 0.694873,-3.335389 1.111796,-5.003084c16.676945,-4.169236 32.797993,-7.6436 48.502116,-10.006167c15.2872,-2.362567 30.435425,-3.752313 45.444676,-5.142058zm-1.667695,27.655934l0,0c-0.138975,1.389745 -0.138975,2.918465 -0.277949,4.308211c-15.426175,1.806669 -31.269273,3.752313 -47.251345,6.809753c-16.537971,3.196415 -33.63184,7.782575 -51.420582,13.341556c0.277949,-1.667695 0.555898,-3.335389 0.833847,-5.003084c17.649767,-5.420007 34.604662,-9.867193 50.864684,-12.924633c15.982073,-2.918465 31.686196,-4.864109 47.251345,-6.531804zm204.153607,-47.112371l0,0c0.416924,1.667695 0.972822,3.335389 1.389745,5.003084c-15.565149,-3.05744 -30.713374,-5.697956 -45.583651,-7.365651c-14.592327,-1.806669 -29.04568,-2.779491 -43.360058,-3.752313c0,-1.52872 -0.138975,-2.918465 -0.277949,-4.447185c14.036429,0.972822 28.350807,1.945644 42.80416,3.613338c14.592327,1.52872 29.601578,4.030262 45.027753,6.948727zm-6.253855,-18.066691l0,0c0.555898,1.667695 1.250771,3.335389 1.806669,5.003084c-14.731302,-2.501542 -29.184654,-4.58616 -43.221084,-5.836931c-13.897455,-1.389745 -27.794909,-2.223593 -41.414414,-3.05744c-0.277949,-1.389745 -0.416924,-2.779491 -0.694873,-4.308211c13.619505,0.694873 27.239011,1.52872 40.858516,2.779491c14.036429,1.250771 28.072858,3.05744 42.665185,5.420007zm11.256938,36.272356l0,0c0.416924,1.667695 0.833847,3.335389 1.250771,5.003084c-16.398996,-3.752313 -32.242094,-6.948727 -47.529294,-9.033345c-15.148225,-2.084618 -30.157476,-3.474364 -44.749804,-4.58616c-0.138975,-1.52872 -0.277949,-2.918465 -0.416924,-4.447185c14.592327,1.250771 29.462604,2.362567 44.471854,4.447185c15.148225,1.945644 30.852349,5.003084 46.973396,8.616422zm6.809753,32.659018l0,0c0.277949,1.667695 0.555898,3.335389 0.833847,5.003084c-17.371818,-5.003084 -34.187738,-9.17232 -50.308785,-11.951811c-15.704124,-2.779491 -31.269273,-4.447185 -46.556473,-6.11488c-0.138975,-1.389745 -0.138975,-2.779491 -0.277949,-4.308211c15.148225,1.52872 30.713374,3.196415 46.417498,5.836931c15.982073,2.640516 32.659018,6.809753 49.891862,11.534887zm-3.196415,-16.260022l0,0c0.416924,1.667695 0.694873,3.335389 0.972822,5.003084c-16.81592,-4.447185 -33.075942,-8.199498 -48.91904,-10.562065c-15.426175,-2.501542 -30.713374,-3.891287 -45.722625,-5.281033c-0.138975,-1.52872 -0.277949,-2.918465 -0.277949,-4.447185c14.870276,1.389745 30.157476,2.779491 45.444676,5.142058c15.704124,2.362567 31.825171,5.836931 48.502116,10.145142zm-108.53912,-16.260022l0,0c0.138975,1.52872 0.138975,2.918465 0.138975,4.308211c-14.731302,-0.694873 -29.462604,-1.250771 -44.193905,-1.250771c-14.731302,0 -29.462604,0.694873 -44.193905,1.389745c0,-1.52872 0.138975,-2.918465 0.277949,-4.308211c14.731302,-0.694873 29.323629,-1.250771 43.915956,-1.250771c14.731302,-0.138975 29.323629,0.555898 44.054931,1.111796zm114.237076,48.224167l0,0c0.277949,1.667695 0.555898,3.335389 0.833847,5.003084c-17.927716,-5.697956 -34.882611,-10.284116 -51.420582,-13.480531c-15.982073,-3.05744 -31.825171,-5.003084 -47.251345,-6.670778c-0.138975,-1.52872 -0.138975,-2.918465 -0.277949,-4.447185c15.426175,1.806669 31.130298,3.613338 47.112371,6.531804c16.398996,3.05744 33.353891,7.6436 51.003658,13.063607zm-286.704487,-101.034494l0,0c44.193905,-4.169236 86.998065,-6.809753 129.524276,-6.809753c42.387236,0 85.191396,2.501542 129.524276,6.809753c0.833847,1.667695 1.667695,3.335389 2.362567,5.003084c-45.305702,-4.725135 -88.943709,-7.504625 -132.025818,-7.504625c-43.082109,0 -86.859091,2.779491 -131.886843,7.504625c0.694873,-1.667695 1.52872,-3.335389 2.501542,-5.003084zm119.657083,-44.33288l0,0c0,4.725135 0,9.450269 -0.138975,14.175404c-17.232844,0 -34.326713,0.138975 -51.559556,0.555898c-17.232844,0.416924 -34.743636,1.111796 -52.254429,1.945644c3.613338,-5.558982 7.365651,-11.117964 11.256938,-16.676945c15.426175,0 30.852349,0 46.278524,0c15.426175,0 30.852349,0 46.417498,0zm130.636072,27.933884l0,0c1.111796,1.667695 1.945644,3.474364 2.918465,5.142058c-41.970313,-3.196415 -83.106778,-5.142058 -123.687345,-5.142058c-40.580567,0 -81.578058,1.945644 -123.548371,5.142058c0.833847,-1.667695 1.806669,-3.474364 2.779491,-5.142058c40.858516,-2.640516 81.02216,-4.169236 120.76888,-4.169236c39.74672,-0.138975 79.771389,1.52872 120.76888,4.169236zm-20.429258,-27.933884l0,0c4.725135,5.558982 9.033345,11.117964 13.202582,16.676945c-9.867193,-0.555898 -19.734385,-0.972822 -29.462604,-1.250771c-9.589244,-0.416924 -19.317462,-0.555898 -28.906705,-0.833847c-2.084618,-4.864109 -4.169236,-9.728218 -6.531804,-14.592327c8.616422,0 17.232844,0 25.849265,0c8.616422,0 17.232844,0 25.849265,0zm-61.843673,0l0,0c1.945644,4.725135 3.752313,9.589244 5.420007,14.453353c-14.453353,-0.138975 -28.906705,-0.277949 -43.360058,-0.277949c-0.277949,-4.725135 -0.555898,-9.450269 -0.972822,-14.175404c12.924633,0 25.98824,0 38.912873,0zm117.433491,178.999214l0,0c0.138975,2.084618 0.138975,4.169236 0.138975,6.253855c-17.371818,-7.226676 -34.048764,-13.341556 -50.308785,-18.34464c17.788742,3.196415 34.604662,7.226676 50.169811,12.090785zm-263.912661,-12.090785l0,0c-16.260022,5.003084 -32.936967,11.117964 -50.169811,18.34464c0,-2.084618 0,-4.169236 0,-6.253855c15.565149,-4.864109 32.381069,-8.894371 50.169811,-12.090785zm108.400145,-45.722625l0,0c0.416924,0.416924 0.694873,0.972822 0.694873,1.52872c0,0.555898 -0.277949,1.111796 -0.694873,1.52872l0,0c-0.416924,0.416924 -0.833847,0.694873 -1.52872,0.694873c-0.555898,0 -1.111796,-0.277949 -1.52872,-0.694873l0,0c-0.416924,-0.416924 -0.694873,-0.972822 -0.694873,-1.52872c0,-0.555898 0.277949,-1.111796 0.694873,-1.52872l0,0c0.416924,-0.416924 0.972822,-0.694873 1.52872,-0.694873c0.694873,0 1.111796,0.277949 1.52872,0.694873l0,0z" class="fil0"/>
   <path stroke="null" id="svg_6" d="m329.207154,430.402663c-12.924633,-5.697956 -48.502116,-12.507709 -87.831913,2.918465c-33.075942,13.202582 -47.946218,15.565149 -85.191396,10.284116c23.625673,14.314378 68.097527,8.199498 93.668843,0.416924c41.692364,-12.507709 74.212407,4.169236 74.212407,4.308211l5.142058,2.779491l5.142058,-2.779491c0.138975,-0.138975 32.659018,-16.81592 74.212407,-4.308211c25.710291,7.782575 70.182145,13.897455 93.668843,-0.416924c-37.106204,5.281033 -52.115454,2.918465 -85.191396,-10.284116c-39.190822,-15.426175 -74.90728,-8.616422 -87.831913,-2.918465z" class="fil0"/>
  </g>
 </g>
</svg>